<svg width="512" height="512" viewBox="0 0 512 512" xmlns="http://www.w3.org/2000/svg">
  <!-- Background -->
  <rect width="512" height="512" rx="64" fill="#6366f1"/>
  
  <!-- Main rocket shape -->
  <path d="M256 80 L320 200 L256 160 L192 200 Z" fill="#ffffff" opacity="0.9"/>
  
  <!-- Rocket body -->
  <rect x="236" y="160" width="40" height="120" rx="20" fill="#ffffff" opacity="0.9"/>
  
  <!-- Rocket fins -->
  <path d="M216 240 L236 260 L236 280 L216 260 Z" fill="#ffffff" opacity="0.7"/>
  <path d="M296 240 L276 260 L276 280 L296 260 Z" fill="#ffffff" opacity="0.7"/>
  
  <!-- Flame -->
  <ellipse cx="256" cy="300" rx="20" ry="40" fill="#ff6b6b" opacity="0.8"/>
  <ellipse cx="256" cy="310" rx="12" ry="25" fill="#ffd93d" opacity="0.9"/>
  
  <!-- Code brackets -->
  <text x="140" y="380" font-family="monospace" font-size="48" fill="#ffffff" opacity="0.8">&lt;/&gt;</text>
  
  <!-- Building blocks -->
  <rect x="320" y="340" width="24" height="24" rx="4" fill="#ffffff" opacity="0.6"/>
  <rect x="350" y="340" width="24" height="24" rx="4" fill="#ffffff" opacity="0.6"/>
  <rect x="380" y="340" width="24" height="24" rx="4" fill="#ffffff" opacity="0.6"/>
  
  <rect x="320" y="370" width="24" height="24" rx="4" fill="#ffffff" opacity="0.6"/>
  <rect x="350" y="370" width="24" height="24" rx="4" fill="#ffffff" opacity="0.6"/>
  <rect x="380" y="370" width="24" height="24" rx="4" fill="#ffffff" opacity="0.6"/>
  
  <!-- Sparkles -->
  <circle cx="180" cy="140" r="4" fill="#ffd93d" opacity="0.8"/>
  <circle cx="340" cy="120" r="3" fill="#ffd93d" opacity="0.8"/>
  <circle cx="160" cy="200" r="2" fill="#ffd93d" opacity="0.8"/>
  <circle cx="360" cy="180" r="3" fill="#ffd93d" opacity="0.8"/>
</svg>